# xmcd CD database file
#
# Track frame offsets:
#	150
#	13210
#	25109
#	38111
#	52765
#	66978
#	80891
#	94219
#	107911
#	120732
#	133113
#	146216
#	160231
#	172438
#	185037
#	198689
#	211882
#	225907
#	238428
#	251445
#	265072
#	277948
#	291685
#	305061
#
# Disc length: 4222 seconds
#
# Revision: 0
# Processed by: cddbd v1.5.2PL0 Copyright (c) Steve Scherf et al.
# Submitted via: CDex 1.50beta10
#
DISCID=7b107c18
DTITLE=Ella Fitzgerald - The Complete Masters CD3
DYEAR=1938
DGENRE=Jazz
TTITLE0=I Was Doing All Right
TTITLE1=A-Tisket, A-Tasket
TTITLE2=Heart of Mine
TTITLE3=I'm Just a Jitterbug
TTITLE4=This Time It's Real
TTITLE5=(Oh, Oh) What Do You Know About Love?
TTITLE6=You Can't Be Mine (And Someone Else's Too)
TTITLE7=We Can't Go On This Way
TTITLE8=Saving Myself For You
TTITLE9=If You Only Knew
TTITLE10=Pack Up Your Sins And Go To The Devil
TTITLE11=McPherson is Rehearsin' (to Swing)
TTITLE12=Everybody Step
TTITLE13=Ella
TTITLE14=Wacky Dust
TTITLE15=Gotta Pebble in My Shoe
TTITLE16=I Can't Stop Loving You
TTITLE17=Strictly From Dixie
TTITLE18=Woe Is Me
TTITLE19=I Let a Tear Fall in the River
TTITLE20=Franklin D. Roosevelt Jones
TTITLE21=I Love Each Move You Make
TTITLE22=It's Foxy
TTITLE23=I Found My Yellow Basket
EXTD=YEAR: 1938
EXTT0=
EXTT1=
EXTT2=
EXTT3=
EXTT4=
EXTT5=
EXTT6=
EXTT7=
EXTT8=
EXTT9=
EXTT10=
EXTT11=
EXTT12=
EXTT13=
EXTT14=
EXTT15=
EXTT16=
EXTT17=
EXTT18=
EXTT19=
EXTT20=
EXTT21=
EXTT22=
EXTT23=
PLAYORDER=
